REM DIRINDEX 1\2,1\3,1\4
REM DIRNAME cjc032,folder01,folder02,folder03
TITLE ""
FILE "Disk1Track03.mp3" MP3
  TRACK 01 AUDIO
    TITLE "2:cjc032_0012"
    INDEX 01 00:00:00
  TRACK 02 AUDIO
    TITLE "2:cjc032_0013"
    INDEX 01 00:04:44
  TRACK 03 AUDIO
    TITLE "2:cjc032_0014"
    INDEX 01 00:21:19
  TRACK 04 AUDIO
    TITLE "2:cjc032_0015"
    INDEX 01 00:38:39
  TRACK 05 AUDIO
    TITLE "0:"
    INDEX 01 00:49:63
